<?xml version="1.0" encoding="UTF-8"?>
<svg id="Calque_1" xmlns="http://www.w3.org/2000/svg" version="1.1" viewBox="0 0 300 300">
  <!-- Generator: Adobe Illustrator 29.5.1, SVG Export Plug-In . SVG Version: 2.1.0 Build 141)  -->
  <defs>
    <style>
      .st0 {
        fill: #fff;
      }

      .st0, .st1 {
        fill-rule: evenodd;
      }

      .st1 {
        fill: #825700;
      }

      .st2 {
        fill: none;
        opacity: .2;
      }

      .st3 {
        fill: #1fa06e;
      }

      .st4 {
        opacity: .5;
      }

      .st5 {
        fill: #e8ab00;
      }

      .st6 {
        fill: #afafaf;
      }
    </style>
  </defs>
  <g>
    <path d="M32.5,297.7c-9.7,0-17.6-7.9-17.6-17.6v-133.4l-.4-.3c-6.8-6-10.5-14.2-10.5-22.7v-19.3c0-12.8,8.4-24.3,20.9-28.6l22.5-22.1c14.4-14.4,33.6-22.4,54-22.4h3.8l28.3-23.1c4.7-3.8,10.6-5.9,16.7-5.9s11.9,2.1,16.6,5.8l28.7,23.2h6.2c20.3,0,39.7,8.1,54,22.4l23.2,23.2c10.7,5.4,17.1,15.5,17.1,26.6v21c0,8.3-3.7,16.3-10.1,21.9l-.4.3-.4.9v132.5c0,9.7-7.9,17.6-17.6,17.6H32.5Z"/>
    <g>
      <g>
        <path class="st5" d="M268.1,94.4l-26.6-26.6c-10.6-10.6-24.9-16.5-39.9-16.5h-13.2l-34.2-27.6c-2.3-1.9-5.8-1.9-8.1,0l-33.8,27.6h-10.9c-15,0-29.3,5.9-39.9,16.5l-26.3,26.3c-6.2,0-11.2,4.6-11.2,10.3v19.3c0,5.6,4.9,10.1,10.9,10.2v143.8h230.1v-143.8h.6c5.7,0,10.3-4.2,10.3-9.4v-21c0-4.4-3.4-8.1-7.9-9.1Z"/>
        <g class="st4">
          <path class="st6" d="M71.3,133.9h-3.3s-32.7,0-32.7,0c-.1,0-.3,0-.4,0v143.8h37.2v-144.2c-.2,0-.5.1-.7.2v.2ZM236.1,133.9c-1.8,0-3.5-.1-5.1-.4-.9-.2-1.8-.4-2.7-.7v144.9h36.8v-143.8h-29Z"/>
        </g>
        <g>
          <path class="st1" d="M35.2,94.1l26.3-26.3c10.6-10.6,24.9-16.5,39.9-16.5h100.2c15,0,29.3,5.9,39.9,16.5l27.5,27.5-42.1,7.9-65.6-33.3-28.5,3.8-73.2,38-24.3-17.6Z"/>
          <polygon class="st0" points="265.1 277.2 34.9 277.2 34.9 119.3 80.9 119.3 149.4 48.9 223.4 119.3 265.1 119.3 265.1 277.2"/>
          <polygon class="st0" points="265.1 277.7 34.9 277.7 34.9 119.8 80.9 119.8 149.4 49.5 223.4 119.8 265.1 119.8 265.1 277.7"/>
          <path class="st3" d="M150.1,197.6c-20,.9-32.8,14.7-32.8,29.7v50.4h65.7v-50.4c0-15.1-12.9-28.9-32.8-29.7Z"/>
          <path class="st5" d="M265.7,94.1h-24.2L154.2,23.7c-2.3-1.9-5.8-1.9-8.1,0L59.9,94.1h-24.7c-6.2,0-11.2,4.6-11.2,10.3v19.3c0,5.7,5,10.3,11.2,10.3h36s0-.3,0-.3c3-.5,5.8-1.8,8-3.6l70.9-58,69.9,56.4c3.1,2.5,6.8,4.3,10.8,5.1,1.6.3,3.3.5,5.1.4h29.7c5.7,0,10.3-4.2,10.3-9.4v-21c0-5.2-4.6-9.4-10.3-9.4Z"/>
        </g>
        <g class="st4">
          <path class="st6" d="M71.3,133.9h-3.3s-32.7,0-32.7,0c-.1,0-.3,0-.4,0v143.8h39.7v-145c-1,.4-2.1.7-3.2.9v.2ZM236.1,133.9c-1.8,0-3.5-.1-5.1-.4-1.8-.4-3.5-.9-5.2-1.7v145.9h39.3v-143.8h-29Z"/>
        </g>
      </g>
      <rect class="st3" x="124.5" y="124" width="48.5" height="48.5" rx="12.8" ry="12.8"/>
    </g>
  </g>
  <rect class="st2" width="300" height="300"/>
</svg>