<?xml version="1.0" encoding="UTF-8"?>
<svg id="Calque_1" xmlns="http://www.w3.org/2000/svg" version="1.1" viewBox="0 0 300 300">
  <!-- Generator: Adobe Illustrator 29.5.1, SVG Export Plug-In . SVG Version: 2.1.0 Build 141)  -->
  <defs>
    <style>
      .st0 {
        fill: #fff;
      }

      .st1 {
        fill: #1fa06e;
      }

      .st2 {
        fill: #e8ab00;
      }
    </style>
  </defs>
  <path d="M150,0C67.3,0,0,67.3,0,150s67.3,150,150,150,150-67.3,150-150S232.7,0,150,0Z"/>
  <g>
    <circle class="st0" cx="150" cy="150" r="101.6"/>
    <path class="st2" d="M150,51.5c54.4,0,98.5,44.1,98.5,98.5s-44.1,98.5-98.5,98.5-98.5-44.1-98.5-98.5,44.1-98.5,98.5-98.5ZM150,20.6c-71.4,0-129.4,58-129.4,129.4s58,129.4,129.4,129.4,129.4-58,129.4-129.4S221.4,20.6,150,20.6Z"/>
    <path class="st1" d="M195.6,205.9l-19.5-63.4c-1.8-5.7-5.3-10.8-10-14.5l-52.6-40.4c-4.6-3.6-11.1.9-9.3,6.5l19.5,63.4c1.8,5.7,5.3,10.8,10,14.5l52.6,40.4c4.6,3.6,11.1-.9,9.3-6.5ZM149.9,163.5c-7.4,0-13.5-6-13.5-13.5s6-13.5,13.5-13.5,13.5,6,13.5,13.5-6,13.5-13.5,13.5Z"/>
  </g>
</svg>