<?xml version="1.0" encoding="UTF-8"?>
<svg id="Calque_1" xmlns="http://www.w3.org/2000/svg" version="1.1" viewBox="0 0 300 300">
  <!-- Generator: Adobe Illustrator 29.5.1, SVG Export Plug-In . SVG Version: 2.1.0 Build 141)  -->
  <defs>
    <style>
      .st0 {
        fill: #fff;
      }

      .st1 {
        fill: #563700;
      }

      .st2 {
        fill: none;
      }

      .st3 {
        fill: #1fa06e;
      }

      .st4 {
        fill: #e8ab00;
      }
    </style>
  </defs>
  <g>
    <path d="M234.4,251.4c25.3-26.2,39-60.6,38.4-97.1,0-1.1,0-2.2-.1-3.3v-4.4c-.2-11.3-1.8-22.6-4.7-33.5l27.7-33.4.4-.5c4.4-5.8,5.1-13.8,1.9-20.4h0c-3.1-6.2-9.4-10.1-16.3-10.1h-46.4c-16.2-20-38.5-33.6-62.7-38.4-10.8-2.1-22.6-3.2-36-3.2-47,0-90.2,24.7-115.6,66.2-7.7,12.5-13.4,26.9-17.2,42.8l-1.6,6.8c-1.5,9-2.2,18.5-2.2,28s0,2.2.1,3.3v4.5c1.2,74,62.3,134.2,136.3,134.2,0,0,56.6,2.6,98-41.5Z"/>
    <g>
      <path class="st4" d="M19.7,158.2c1,64.8,54.3,116.4,119.1,115.4s116.4-54.3,115.4-119.1c0-1.3-.1-2.5-.2-3.7v-3.7c-1-64.8-54.3-116.4-119.1-115.4-64.8,1-116.2,49.1-115.4,119.1v7.5h.2Z"/>
      <path class="st3" d="M96.5,111.2l131.4-41.3-5.7-7.3c-13.3-17-32-29.2-53.2-33.4-10.1-2-20.8-2.8-32-2.8-52,0-96.1,35.4-111.9,84.7h71.5"/>
      <path class="st0" d="M233.5,66.7h-101.2c-3.3,0-6.5,1.6-8.8,4.4l-33.3,40.1h157.4c0,0,32-38.6,32-38.6h0c1.7-2.2.4-5.8-2.1-5.8h-44.1.1Z"/>
      <g>
        <path class="st1" d="M205.9,195.2c-1.7-2-4-3.2-6.6-3.5-2.6-.2-5.1.6-7.1,2.2-16.8,14-41.1,14-57.8,0-2-1.7-4.5-2.4-7.1-2.2s-4.9,1.5-6.6,3.5-2.5,4.5-2.2,7.1c.2,2.6,1.5,4.9,3.5,6.6,11.6,9.7,26.3,15,41.4,15s29.8-5.3,41.4-15c4.1-3.4,4.7-9.6,1.2-13.7h0Z"/>
        <circle class="st1" cx="118.1" cy="163.1" r="15.8"/>
        <circle class="st1" cx="208.6" cy="163.1" r="15.8"/>
      </g>
    </g>
  </g>
  <rect class="st2" width="300" height="300"/>
  <g>
    <g>
      <path d="M298,58.9c-3.1-6.3-9.4-10.2-16.3-10.2h-46.4c-16.2-20-38.5-33.6-62.7-38.4-10.8-2.1-22.6-3.2-36-3.2-47,0-90.2,24.7-115.6,66.2-7.7,12.5-13.4,26.9-17.2,42.8l-1.6,6.8C.7,131.9,0,141.4,0,150.9c0,1.1,0,2.2.1,3.3v.5s0,.6,0,.6c0,1.1,0,2.2,0,3.4,1.2,74,62.3,134.2,136.3,134.2s1.5,0,2.2,0c36.4-.6,70.4-15.3,95.8-41.5,25.3-26.2,39-60.6,38.4-97.1,0-1.1,0-2.2-.1-3.3v-.5s0-.7,0-.7c0-1.1,0-2.2,0-3.2-.2-11.3-1.8-22.6-4.7-33.5l27.7-33.4.4-.5c4.4-5.8,5.1-13.8,1.9-20.4Z"/>
      <g>
        <path class="st4" d="M19.7,158.2c1,64.8,54.3,116.4,119.1,115.4,64.8-1,116.4-54.3,115.4-119.1,0-1.3-.1-2.5-.2-3.7,0-1.2,0-2.5,0-3.7-1-64.8-54.3-116.4-119.1-115.4-64.8,1-116.2,49.1-115.4,119.1v7.5Z"/>
        <path class="st3" d="M96.5,111.2l131.4-41.3-5.7-7.3c-13.3-17-32-29.2-53.2-33.4-10.1-2-20.8-2.8-32-2.8-52,0-96.1,35.4-111.9,84.7h71.5"/>
        <path class="st0" d="M233.5,66.7h-101.2c-3.3,0-6.5,1.6-8.8,4.4l-33.3,40.1h157.4s0,0,0-.1l32-38.5h0c1.7-2.2.4-5.8-2.1-5.8h-44.1Z"/>
        <g>
          <path class="st1" d="M205.9,195.2c-1.7-2-4-3.2-6.6-3.5-2.6-.2-5.1.6-7.1,2.2-16.8,14-41.1,14-57.8,0-2-1.7-4.5-2.4-7.1-2.2-2.6.2-4.9,1.5-6.6,3.5-1.7,2-2.5,4.5-2.2,7.1.2,2.6,1.5,4.9,3.5,6.6,11.6,9.7,26.3,15,41.4,15s29.8-5.3,41.4-15c4.1-3.4,4.7-9.6,1.2-13.7Z"/>
          <circle class="st1" cx="118.1" cy="163.1" r="15.8"/>
          <circle class="st1" cx="208.6" cy="163.1" r="15.8"/>
        </g>
      </g>
    </g>
    <rect class="st2" x="0" width="300" height="300"/>
  </g>
</svg>