<?xml version="1.0" encoding="UTF-8"?>
<svg id="Calque_1" xmlns="http://www.w3.org/2000/svg" version="1.1" viewBox="0 0 300 300">
  <!-- Generator: Adobe Illustrator 29.5.1, SVG Export Plug-In . SVG Version: 2.1.0 Build 141)  -->
  <defs>
    <style>
      .st0 {
        fill: #053d22;
      }

      .st1 {
        fill: #25a26a;
      }

      .st2 {
        fill: #fff;
      }

      .st3 {
        fill: #e54c8a;
        opacity: 0;
      }

      .st4 {
        fill: #e8ab00;
      }
    </style>
  </defs>
  <rect class="st3" x="1.1" width="297.8" height="300"/>
  <g>
    <path d="M271.8,33.8l-1.8-.6-.4-1.9c-2.8-12.8-14.3-22-27.3-22h-44c-12.4,0-23.4,8.4-26.8,20.4l-.7,2.4h-37.4l-.7-2.4c-3.3-12-14.2-20.5-26.6-20.5h-44.7c-12.8,0-23.8,8.7-26.8,21.2l-.5,2.1-2.1.4C13.5,36.5,0,53,0,72.1v66.4c0,12.3,3.4,24.4,9.8,35l.5.8v77.3c0,21.6,17.5,39.3,39,39.3h201.4c21.5,0,39-17.6,39-39.3v-77.3l.5-.8c6.4-10.5,9.8-22.6,9.8-35v-66.4c0-17.5-11.6-33.2-28.2-38.3Z"/>
    <path class="st1" d="M106,29.3h-44.6c-4.2,0-7.7,3.5-7.7,7.7v12.6c0,4.3,3.4,7.7,7.7,7.7h44.6c4.2,0,7.7-3.5,7.7-7.7v-12.6c0-4.3-3.4-7.7-7.7-7.7Z"/>
    <path class="st1" d="M242.2,29.3h-44c-4.4,0-8,3.6-8,8.1v14.5c0,4.5,3.6,8.1,8,8.1h44c4.4,0,8-3.6,8-8.1v-14.5c0-4.5-3.6-8.1-8-8.1Z"/>
    <path class="st1" d="M250.7,57.4H49.3c-10.5,0-19.1,8.6-19.1,19.2v174.9c0,10.6,8.5,19.2,19.1,19.2h201.5c10.5,0,19.1-8.6,19.1-19.2V76.6c0-10.6-8.5-19.2-19.1-19.2Z"/>
    <path class="st0" d="M30.1,160.2v31.7c7.5,7.8,17.6,14,31,14h68s0,.5,0,.5c0,11.6,9.3,21,20.8,21s20.8-9.4,20.8-21v-.5h65c12.1,0,23.8-4.3,34-12.2v-30l-239.6-3.5Z"/>
    <path class="st4" d="M39.7,52.2h220.7c10.9,0,19.8,8.9,19.8,19.9v66.4c0,25.8-20.8,46.8-46.4,46.8H66.3c-25.6,0-46.4-21-46.4-46.8v-66.4c0-11,8.8-19.9,19.8-19.9Z"/>
    <rect class="st2" x="92.6" y="89.6" width="114.7" height="61.1" rx="12.8" ry="12.8"/>
  </g>
</svg>