<?xml version="1.0" encoding="UTF-8"?>
<svg id="Calque_1" xmlns="http://www.w3.org/2000/svg" version="1.1" viewBox="0 0 300 300">
  <!-- Generator: Adobe Illustrator 29.5.1, SVG Export Plug-In . SVG Version: 2.1.0 Build 141)  -->
  <defs>
    <style>
      .st0 {
        fill: #fff;
      }

      .st1 {
        fill: #1fa06e;
      }

      .st2 {
        fill: #e8ab00;
      }
    </style>
  </defs>
  <g>
    <path d="M289.6,202.6c.9-3.5,1.3-7,1.3-10.6V44.1C290.8,19.8,271.5,0,247.7,0H52.3C28.5,0,9.2,19.8,9.2,44.1v147.9c0,3.5.4,7.1,1.3,10.6C3.9,208.1,0,216.2,0,224.9v18.1C0,258.9,12.6,271.8,28.2,271.8h243.6c15.5,0,28.2-12.9,28.2-28.8v-18.1c0-8.6-3.9-16.8-10.4-22.3Z"/>
    <g>
      <path d="M47.5,296.3h0c-4.8-4.9-4.8-12.8,0-17.7l35.7-36.5c4.8-4.9,12.5-4.9,17.3,0h0c4.8,4.9,4.8,12.8,0,17.7l-35.7,36.5c-4.8,4.9-12.5,4.9-17.3,0Z"/>
      <path d="M252.5,296.3h0c4.8-4.9,4.8-12.8,0-17.7l-35.7-36.5c-4.8-4.9-12.5-4.9-17.3,0h0c-4.8,4.9-4.8,12.8,0,17.7l35.7,36.5c4.8,4.9,12.5,4.9,17.3,0Z"/>
    </g>
    <path class="st1" d="M30.1,197.2c.4,1.6.9,3.1,1.5,4.5h236.8c.6-1.4,1.1-2.9,1.5-4.5,0,0,0-.1,0-.2.4-1.6.6-3.3.6-5V44.1c0-12.9-10.2-23.3-22.8-23.3H52.3c-12.6,0-22.8,10.4-22.8,23.3v147.9c0,1.7.2,3.4.6,5,0,0,0,.1,0,.2Z"/>
    <path class="st2" d="M271.8,216.9H28.2c-4.3,0-7.8,3.6-7.8,8v18.1c0,4.4,3.5,8,7.8,8h243.6c4.3,0,7.8-3.6,7.8-8v-18.1c0-4.4-3.5-8-7.8-8Z"/>
    <path class="st0" d="M256.7,216.5c1.6-3,2.5-6.5,2.5-10.2v-11.5c0-12-9.5-21.8-21.3-21.8h-42.3c-11.8,0-21.3,9.8-21.3,21.8v11.5c0,3.7.9,7.2,2.5,10.2h79.9Z"/>
  </g>
  <path class="st0" d="M55.9,136.6c7.4-13.3,17.8-24.2,30.8-31.6,5.7-3.2,12.2-6.4,18.7-7.5,9.6-1.5,8.8,4.7,7,12-2.1,8.7-3.3,19.3,5.7,24.4,10.9,6.2,21.1-2.7,27.5-11,4.6-6,9.7-14.4,17.1-17.1,8.4-3,13.2,1.4,14.7,9.7,1.9,10.6,7.2,19.8,19.1,17.9,12-1.9,23.2-12.7,31.8-20.9,10.7-10.3,19.5-22.5,26.5-35.7,3.8-7.2-6.9-13.6-10.7-6.4-7.5,14.2-17.1,26.8-29,37.2-4.4,3.8-13.2,12.6-19.2,13-7.8.5-6.5-12.7-9.1-17.7-5.2-9.9-17.5-12.6-27.3-9.3-12.7,4.2-17.5,16.4-26.4,25.2-2.7,2.6-7.3,7-9.8,2.2-1.1-2,.6-6,1.1-8,1.1-4.7,2.5-9.5,1.7-14.4-1.6-11.2-11.7-15.1-21.7-13.6-24.9,3.7-47.2,23.5-59.3,45.3-4,7.1,6.7,13.5,10.7,6.4h0Z"/>
</svg>