<?xml version="1.0" encoding="UTF-8"?>
<svg id="INDEX_EDUCATION_RVB" xmlns="http://www.w3.org/2000/svg" version="1.1" viewBox="0 0 1344.8 296.3">
  <!-- Generator: Adobe Illustrator 29.5.1, SVG Export Plug-In . SVG Version: 2.1.0 Build 141)  -->
  <defs>
    <style>
      .st0 {
        fill: #fff;
      }

      .st1 {
        fill: none;
      }
    </style>
  </defs>
  <rect class="st1" x=".4" y="-.2" width="1345" height="296.8"/>
  <g>
    <path class="st0" d="M1242.6,117.6h-58.7c-2.7,0-4.9-2.2-4.9-4.9h0c0-2.7,2.2-4.9,4.9-4.9h58.7c2.7,0,4.9,2.2,4.9,4.9h0c0,2.7-2.2,4.9-4.9,4.9Z"/>
    <path class="st0" d="M1268.2,99.3h-58.7c-2.7,0-4.9-2.2-4.9-4.9h0c0-2.7,2.2-4.9,4.9-4.9h58.7c2.7,0,4.9,2.2,4.9,4.9h0c0,2.7-2.2,4.9-4.9,4.9Z"/>
    <path class="st0" d="M1252.1,81h-58.7c-2.7,0-4.9-2.2-4.9-4.9h0c0-2.7,2.2-4.9,4.9-4.9h58.7c2.7,0,4.9,2.2,4.9,4.9h0c0,2.7-2.2,4.9-4.9,4.9Z"/>
    <path class="st0" d="M360.6,215.5v-12h4.5v11.7c0,3.8,1.9,6,6,6s6-2.2,6-6v-11.7h4.5v12c0,6.4-4.3,9.6-10.5,9.6s-10.4-3.2-10.4-9.6h-.1Z"/>
    <path class="st0" d="M408.9,203.5v21.2h-4.1l-13.5-14.9v14.9h-4.4v-21.2h4.4l13.2,14.6v-14.6h4.4Z"/>
    <path class="st0" d="M433.2,203.5v4.1h-14v4.2h12.8v4.1h-12.8v4.7h14.4v4.1h-17.3c-1,0-1.5-.6-1.5-1.5v-19.7h18.5-.1Z"/>
    <path class="st0" d="M447.1,224.7v-21.2h18.1v4.1h-13.6v5.2h12.5v4.1h-12.5v7.8h-4.5Z"/>
    <path class="st0" d="M469.7,224.7v-21.2h4.5v21.2h-4.5Z"/>
    <path class="st0" d="M484.3,220.6h12.3v4.1h-15.2c-1,0-1.5-.6-1.5-1.5v-19.7h4.5v17.1h0Z"/>
    <path class="st0" d="M500,224.7v-21.2h4.5v21.2h-4.5Z"/>
    <path class="st0" d="M534,224.7h-2.7c-1.7,0-2.2,0-2.9-1.4l-1.3-2.5h-13l-1.9,3.9h-4.8l11.1-21.5h4.4l11.1,21.5h0ZM525.1,216.9l-4.5-8.9-4.5,8.9h9Z"/>
    <path class="st0" d="M541.2,220.6h12.3v4.1h-15.2c-1,0-1.5-.6-1.5-1.5v-19.7h4.5v17.1h0Z"/>
    <path class="st0" d="M575.3,203.5v4.1h-14v4.2h12.8v4.1h-12.8v4.7h14.4v4.1h-17.3c-1,0-1.5-.6-1.5-1.5v-19.7h18.5-.1Z"/>
    <path class="st0" d="M609.5,221.2c-2.8,2.8-6.2,3.7-11.3,3.7s-5.9,0-9-.1v-21.2c3.1,0,6.2-.1,9-.1,5.1,0,8.5.9,11.3,3.7,1.7,1.7,2.7,4.4,2.7,7.1s-1,5.4-2.7,7.1h0v-.2ZM605.7,209.5c-1.9-1.9-4.5-2-7.6-2h-4.4v13.2h4.4c3.1,0,5.7-.1,7.6-2,1.2-1.1,1.8-2.8,1.8-4.6s-.6-3.5-1.8-4.6h0Z"/>
    <path class="st0" d="M635.2,203.5v4.1h-14v4.2h12.8v4.1h-12.8v4.7h14.4v4.1h-17.3c-1,0-1.5-.6-1.5-1.5v-19.7h18.5-.1Z"/>
    <path class="st0" d="M669.4,221.2c-2.8,2.8-6.2,3.7-11.3,3.7s-5.9,0-9-.1v-21.2c3.1,0,6.2-.1,9-.1,5.1,0,8.5.9,11.3,3.7,1.7,1.7,2.7,4.4,2.7,7.1s-1,5.4-2.7,7.1h0v-.2ZM665.6,209.5c-1.9-1.9-4.5-2-7.6-2h-4.4v13.2h4.4c3.1,0,5.7-.1,7.6-2,1.2-1.1,1.8-2.8,1.8-4.6s-.6-3.5-1.8-4.6h0Z"/>
    <path class="st0" d="M688.4,225.2c-8,0-12.8-4.9-12.8-11.1s4.8-11.1,12.8-11.1,12.8,4.9,12.8,11.1-4.8,11.1-12.8,11.1ZM680.2,214.1c0,4.2,3.4,7,8.2,7s8.2-2.8,8.2-7-3.4-7-8.2-7-8.2,2.8-8.2,7Z"/>
    <path class="st0" d="M724.3,209.6c-1.9-1.8-4.6-2.5-6.9-2.5-4.8,0-8.2,2.8-8.2,7s3.4,7,8.2,7,4.9-.9,7.2-2.6l2.2,3.3c-2.4,2.1-5.8,3.2-9.4,3.2-8,0-12.8-4.9-12.8-11.1s4.8-11.1,12.8-11.1,7,1.2,9.2,3.1l-2.3,3.4h0v.3h0Z"/>
    <path class="st0" d="M754.9,224.7h-2.7c-1.7,0-2.2,0-2.9-1.4l-1.3-2.5h-13l-1.9,3.9h-4.8l11.1-21.5h4.4l11.1,21.5h0ZM746.1,216.9l-4.5-8.9-4.5,8.9h9Z"/>
    <path class="st0" d="M762.3,224.7h-4.5v-21.2c2.2,0,5.1-.1,7.7-.1,7.9,0,12,2.1,12,7.4s-5,7.6-11.7,7.6-2.4,0-3.5,0v6.4h0ZM765.5,214.3c2.7,0,5.2,0,6.5-1.3.6-.6.9-1.3.9-2.3s-.3-1.5-.7-1.9c-1.2-1.2-3.1-1.4-6.6-1.4s-2.1,0-3.2,0v6.8h3.2-.1Z"/>
    <path class="st0" d="M793.3,225.2c-8,0-12.8-4.9-12.8-11.1s4.8-11.1,12.8-11.1,12.8,4.9,12.8,11.1-4.8,11.1-12.8,11.1ZM785.1,214.1c0,4.2,3.4,7,8.2,7s8.2-2.8,8.2-7-3.4-7-8.2-7-8.2,2.8-8.2,7Z"/>
    <path class="st0" d="M819.2,206.9c-2.8,0-4.9.8-4.9,2.3,0,3.9,14.4,1.7,14.4,9.3s-4.5,6.7-9.8,6.7-7.6-1.1-10.4-3l2.3-3.4c2.1,1.6,5.5,2.7,8.5,2.7s4.8-.6,4.8-2.4c0-4.2-14.4-1.7-14.4-9.1s4.2-6.8,9.6-6.8,6.9,1,9.2,2.6l-2.3,3.4c-1.8-1.4-4.9-2.2-7-2.2h0Z"/>
    <path class="st0" d="M852.2,207.6h-8.1v17.1h-4.5v-17.1h-8.1v-4.1h20.7v4.1h0Z"/>
    <path class="st0" d="M874,203.5v4.1h-14v4.2h12.8v4.1h-12.8v4.7h14.4v4.1h-17.3c-1,0-1.5-.6-1.5-1.5v-19.7h18.5-.1Z"/>
    <path class="st0" d="M72.7,180v-70.7h14.9v70.7h-14.9Z"/>
    <path class="st0" d="M178.5,109.2v70.7h-13.7l-44.8-49.7v49.7h-14.6v-70.7h14.6l43.9,48.7v-48.7h14.6Z"/>
    <path class="st0" d="M264,168.3c-9.2,9.3-20.5,12.2-37.5,12.2s-19.5-.2-29.9-.5v-70.7c10.4-.3,20.5-.5,29.9-.5,17,0,28.3,3,37.5,12.2,5.8,5.8,9,14.6,9,23.6s-3.2,17.9-9,23.6h0ZM251.4,129.1c-6.4-6.4-14.9-6.7-25.2-6.7h-14.8v44c5.2.1,9.8.2,14.8.2,10.3,0,18.8-.4,25.2-6.8,3.8-3.8,6-9.2,6-15.5s-2.1-11.6-6-15.5h0v.3Z"/>
    <path class="st0" d="M348.5,109.2v13.6h-46.5v14.1h42.6v13.6h-42.6v15.7h47.8v13.6h-57.6c-3.3,0-5.1-2.1-5.1-5.1v-65.7h61.4v.2h0Z"/>
    <path class="st0" d="M436.5,180h-11.6c-4.5,0-7.2-.9-9-3.2l-19-24.4-22.3,27.7h-17.4l29.9-36.8-27.4-33.9h18.1l19.1,24.6,19.9-24.7h17.3l-27.5,33.8,29.9,37h0Z"/>
    <path class="st0" d="M537.3,109.2v13.6h-46.6v14.1h42.7v13.6h-42.7v15.7h47.9v13.6h-57.7c-3.2,0-5-2.1-5-5.1v-65.7h61.4v.2ZM507.9,87.6h20.4l-17.2,15.1h-12.9l9.7-15.1Z"/>
    <path class="st0" d="M621.1,168.3c-9.2,9.3-20.5,12.2-37.5,12.2s-19.5-.2-29.9-.5v-70.7c10.4-.3,20.5-.5,29.9-.5,17,0,28.3,3,37.5,12.2,5.8,5.8,9,14.6,9,23.6s-3.2,17.9-9,23.6h0ZM608.6,129.1c-6.4-6.4-14.8-6.7-25.2-6.7h-14.8v44c5.2.1,9.8.2,14.8.2,10.3,0,18.8-.4,25.2-6.8,3.8-3.8,6-9.2,6-15.5s-2.1-11.6-6-15.5h0v.3Z"/>
    <path class="st0" d="M643,149.3v-40h15v38.8c0,12.7,6.4,19.9,19.8,19.9s19.9-7.2,19.9-19.9v-38.8h15v40c0,21.4-14.3,32.1-34.9,32.1s-34.8-10.7-34.8-32.1h0Z"/>
    <path class="st0" d="M791,129.5c-6.5-6-15.4-8.2-23-8.2-15.9,0-27.3,9.2-27.3,23.3s11.4,23.3,27.3,23.3,16.4-2.8,23.8-8.5l7.5,11.1c-8.1,7-19.4,10.8-31.3,10.8-26.8,0-42.7-16.5-42.7-36.8s16-36.8,42.7-36.8,23.3,3.9,30.7,10.2l-7.7,11.4h0v.2Z"/>
    <path class="st0" d="M891.8,180h-8.9c-5.6,0-7.5-.3-9.6-4.6l-4.2-8.3h-43.5l-6.5,12.8h-16.1l37.1-71.4h14.5l37.1,71.4h.1ZM862.3,153.8l-15-29.7-15,29.7h30Z"/>
    <path class="st0" d="M951.1,122.9h-27v57.1h-15v-57.1h-27v-13.6h68.9v13.6h0Z"/>
    <path class="st0" d="M961,180v-70.7h15v70.7h-15Z"/>
    <path class="st0" d="M1032.5,181.4c-26.8,0-42.7-16.5-42.7-36.8s16-36.8,42.7-36.8,42.7,16.5,42.7,36.8-16,36.8-42.7,36.8ZM1005.2,144.6c0,14.1,11.3,23.3,27.3,23.3s27.2-9.2,27.2-23.3-11.3-23.3-27.2-23.3-27.3,9.2-27.3,23.3h0Z"/>
    <path class="st0" d="M1162.3,109.2v70.7h-13.7l-44.8-49.7v49.7h-14.6v-70.7h14.6l43.9,48.7v-48.7h14.6Z"/>
  </g>
</svg>