<?xml version="1.0" encoding="UTF-8"?>
<svg id="Calque_1" xmlns="http://www.w3.org/2000/svg" version="1.1" viewBox="0 0 648.8 139.8">
  <!-- Generator: Adobe Illustrator 29.5.1, SVG Export Plug-In . SVG Version: 2.1.0 Build 141)  -->
  <defs>
    <style>
      .st0 {
        fill: #009881;
      }

      .st1 {
        fill: #ffcd05;
      }

      .st2 {
        fill: #f0f0f8;
      }
    </style>
  </defs>
  <g id="PRONOTE-horizontal">
    <circle class="st0" cx="68.3" cy="69.9" r="68.3"/>
    <path class="st2" d="M71.2,69.3s0,0,0,0c0,0,0,0,0,0Z"/>
    <path class="st2" d="M70.7,69.9s0,0,0,0c0,0,0,0,0,0Z"/>
    <path class="st2" d="M70.1,70.4h0s0,0,0,0Z"/>
    <path class="st1" d="M119.2,53.3l-2.8-1.1c-17.3-6.8-36.7,0-44.8,15.6h0c-10.5,17.5-9,29.2-9,29.2h0c.8,9.5,7.1,17.9,16.5,21.6l2.2.9s0,0,0,0c2.8,1.1,6-.2,7-2.9l.9-2.1c3.2-7.9,1.9-16.9-3.5-23.8-.8-1-1.7-2-2.7-3,.4,0,.9,0,1.3,0,2.2-.1,3.6-.2,3.6-.2h0c14.6-1.5,27.1-10.5,32.5-23.7l1.7-4.2c1-2.5-.3-5.2-2.9-6.2h0Z"/>
    <path class="st1" d="M42.4,21.7l2.8,1.2c17.1,7.3,26,25.9,20.9,42.6h0c-4.8,19.9-14.1,27.1-14.1,27.1h0c-7.2,6.2-17.7,7.7-26.9,3.8l-2.2-.9s0,0,0,0c-2.8-1.2-4.1-4.3-3-7l.9-2.1c3.3-7.8,10.5-13.3,19.2-14.4,1.3-.2,2.6-.2,4-.2-.3-.3-.6-.6-.9-.9-1.5-1.6-2.4-2.7-2.4-2.7h0c-9.3-11.3-11.9-26.5-6.4-39.7l1.8-4.2c1-2.4,3.9-3.5,6.5-2.4h0Z"/>
    <path class="st0" d="M211.2,38.3c4.4,2.1,7.8,5.2,10.2,9.2s3.6,8.6,3.6,14-1.2,10-3.6,14c-2.4,3.9-5.8,7.1-10.2,9.2s-9.6,3.2-15.5,3.2h-5.6c-2,0-3.7,1.8-3.7,4v9.1c0,2.2-1.6,4-3.7,4h-14.3c-2,0-3.7-1.8-3.7-4v-61.8c0-2.2,1.6-4,3.7-4h27.3c6,0,11.1,1.2,15.6,3.3h0ZM200.9,67.4c1.4-1.4,2.2-3.4,2.2-6s-.7-4.6-2.2-6-3.7-2.1-6.6-2.1h-4.2c-2,0-3.7,1.8-3.7,4v8.4c0,2.2,1.6,4,3.7,4h4.2c2.9-.1,5.1-.8,6.6-2.3h0Z"/>
    <path class="st0" d="M259.1,87.3h0c-2.1,0-3.9,1.9-3.9,4.2v9.2c0,2.3-1.7,4.2-3.9,4.2h-14c-2.1,0-3.9-1.9-3.9-4.2v-61.4c0-2.3,1.7-4.2,3.9-4.2h27.1c5.9,0,11.1,1.1,15.5,3.2,4.4,2.1,7.8,5.2,10.2,9.2s3.6,8.6,3.6,14-1,9.4-3.1,13.1c-1.4,2.6-3.4,4.9-5.8,6.7-1.7,1.3-2.2,3.9-1,5.8l7.2,11.4c1.7,2.7-.1,6.5-3.2,6.5h-13.8c-1.3,0-2.5-.7-3.2-1.9l-8.7-13.9c-.7-1.1-1.9-1.8-3.2-1.8h0ZM269.8,55.4c-1.4-1.4-3.7-2.1-6.6-2.1h-4c-2.1,0-3.9,1.9-3.9,4.2v7.9c0,2.3,1.7,4.2,3.9,4.2h4c2.9,0,5.2-.7,6.6-2.1,1.4-1.4,2.2-3.4,2.2-6s-.7-4.6-2.2-6.1h0Z"/>
    <path class="st0" d="M317.9,100.4c-5.2-3-9.4-7.1-12.4-12.5-2.9-5.3-4.5-11.4-4.5-18s1.5-12.7,4.5-18c2.9-5.3,7.2-9.5,12.4-12.5,5.2-3,11.2-4.5,17.9-4.5s12.6,1.5,17.9,4.5c5.2,3,9.4,7.1,12.4,12.5,2.9,5.3,4.5,11.4,4.5,18s-1.5,12.7-4.5,18c-2.9,5.3-7.2,9.5-12.4,12.5-5.2,3-11.2,4.5-17.9,4.5s-12.6-1.4-17.9-4.5ZM342.7,84.6c2-1.3,3.8-3.3,5-5.8,1.3-2.5,1.9-5.5,1.9-8.8s-.6-6.3-1.9-8.8c-1.3-2.5-2.9-4.5-5-5.8-2-1.3-4.4-2-7-2s-4.9.7-7,2c-2,1.3-3.8,3.3-5,5.8-1.3,2.5-1.9,5.5-1.9,8.8s.6,6.3,1.9,8.8c1.3,2.5,2.9,4.5,5,5.8,2,1.3,4.4,2.1,7,2.1s4.9-.7,7-2.1Z"/>
    <path class="st0" d="M469.2,100.4c-5.2-3-9.4-7.1-12.4-12.5-2.9-5.3-4.5-11.4-4.5-18s1.5-12.7,4.5-18c2.9-5.3,7.2-9.5,12.4-12.5,5.2-3,11.2-4.5,17.9-4.5s12.6,1.5,17.9,4.5c5.2,3,9.4,7.1,12.4,12.5,2.9,5.3,4.5,11.4,4.5,18s-1.5,12.7-4.5,18c-2.9,5.3-7.2,9.5-12.4,12.5-5.2,3-11.2,4.5-17.9,4.5s-12.7-1.4-17.9-4.5ZM494.1,84.6c2-1.3,3.8-3.3,5-5.8,1.3-2.5,1.9-5.5,1.9-8.8s-.6-6.3-1.9-8.8c-1.3-2.5-2.9-4.5-5-5.8-2-1.3-4.4-2-7-2s-4.9.7-7,2c-2,1.3-3.8,3.3-5,5.8-1.3,2.5-1.9,5.5-1.9,8.8s.6,6.3,1.9,8.8c1.3,2.5,2.9,4.5,5,5.8,2,1.3,4.4,2.1,7,2.1s4.9-.7,7-2.1Z"/>
    <path class="st0" d="M443.3,38.2v63.6c0,1.7-1.3,3-2.8,3h-13.7c-.9,0-1.6-.4-2.2-1.1l-18.6-24.2c-1.7-2.2-5-.9-5,2v20.2c0,1.7-1.3,3-2.8,3h-15.5c-1.6,0-2.8-1.3-2.8-3v-63.6c0-1.7,1.3-3,2.8-3h13.7c.9,0,1.6.4,2.2,1.1l18.6,24.2c1.7,2.2,5,.9,5-2v-20.2c0-1.7,1.3-3,2.8-3h15.5c1.6,0,2.8,1.3,2.8,3h0Z"/>
    <path class="st0" d="M541,53.3h-9.5c-2.6,0-4.7-2.3-4.7-5.1v-8.1c0-2.8,2.1-5.1,4.7-5.1h50c2.6,0,4.7,2.3,4.7,5.1v8.1c0,2.8-2.1,5.1-4.7,5.1h-9.5c-2.6,0-4.7,2.3-4.7,5.1v41.3c0,2.8-2.1,5.1-4.7,5.1h-12.3c-2.6,0-4.7-2.3-4.7-5.1v-41.3c0-2.9-2.1-5.1-4.7-5.1h0Z"/>
    <path class="st0" d="M648.7,91.2v9.5c0,2.3-1.7,4-3.8,4h-45.4c-2.1,0-3.8-1.9-3.8-4v-61.6c0-2.3,1.7-4,3.8-4h44.7c2.1,0,4.3,1.9,4.3,4v9.5c0,2.3-2.2,4-4.3,4h-23.4c-2.1,0-3.8,1.9-3.8,4h0c0,2.3,1.7,4,3.8,4h19.6c2.1,0,3.8,1.9,3.8,4v8.8c0,2.3-1.7,4-3.8,4h-19.6c-2.1,0-3.8,1.9-3.8,4v1c0,2.3,1.7,4,3.8,4h24.1c2.1.2,3.8,2,3.8,4.3h0Z"/>
  </g>
</svg>